HIERARCHY
ROOT pelvis
{
  OFFSET 0 100 0
  CHANNELS 6 Xposition Yposition Zposition Zrotation Xrotation Yrotation
  JOINT pelvis_right_femur
  {
    OFFSET -10.78128 -3.44521 -0.5502486
    CHANNELS 3 Zrotation Xrotation Yrotation
    JOINT right_femur_tibia
    {
      OFFSET -0.8047443 -44.0398 -0.1307829
      CHANNELS 3 Zrotation Xrotation Yrotation
      JOINT right_tibia_foot
      {
        OFFSET 3.006224 -47.83518 -5
        CHANNELS 3 Zrotation Xrotation Yrotation
        End Site
        {
          OFFSET 0 -5 15
        }
      }
    }
  }
  JOINT pelvis_left_femur
  {
    OFFSET 10.78128 -3.44521 -0.5502486
    CHANNELS 3 Zrotation Xrotation Yrotation
    JOINT left_femur_tibia
    {
      OFFSET 0.8047443 -44.0398 -0.1307829
      CHANNELS 3 Zrotation Xrotation Yrotation
      JOINT left_tibia_foot
      {
        OFFSET -4.370144 -48.10324 -4.275266
        CHANNELS 3 Zrotation Xrotation Yrotation
        End Site
        {
          OFFSET 0 -5 15
        }
      }
    }
  }
  JOINT pelvis_spine1
  {
    OFFSET 0 6.468898 -3.129235
    CHANNELS 3 Zrotation Xrotation Yrotation
    JOINT spine1
    {
      OFFSET 0 23.15396 4.99043
      CHANNELS 3 Zrotation Xrotation Yrotation
      JOINT spine2
      {
        OFFSET 0 20.79997 -5.064912
        CHANNELS 3 Zrotation Xrotation Yrotation
        JOINT neck
        {
          OFFSET 0 14.38658 9.616178
          CHANNELS 3 Zrotation Xrotation Yrotation
          End Site
          {
            OFFSET 0 20 0
          }
        }
      }
      JOINT right_manubrium
      {
        OFFSET -5.722621 16.35077 3.967754
        CHANNELS 3 Zrotation Xrotation Yrotation
        JOINT right_clavicle
        {
          OFFSET -13.16364 1.694482 -4.693211
          CHANNELS 3 Zrotation Xrotation Yrotation
          JOINT right_humerus
          {
            OFFSET -28.5034 -0.3100689 -2.792744
            CHANNELS 3 Zrotation Xrotation Yrotation
            JOINT right_radius
            {
              OFFSET -25.15693 0.02248979 -1.271978
              CHANNELS 3 Zrotation Xrotation Yrotation
              End Site
              {
                OFFSET -15 0 0
              }
            }
          }
        }
      }
      JOINT left_manubrium
      {
        OFFSET 5.722621 16.35077 3.967754
        CHANNELS 3 Zrotation Xrotation Yrotation
        JOINT left_clavicle
        {
          OFFSET 13.16364 1.694482 -4.693211
          CHANNELS 3 Zrotation Xrotation Yrotation
          JOINT left_humerus
          {
            OFFSET 29.39168 -1.063119 -2.237045
            CHANNELS 3 Zrotation Xrotation Yrotation
            JOINT left_radius
            {
              OFFSET 24.59957 -0.9528479 0.9047498
              CHANNELS 3 Zrotation Xrotation Yrotation
              End Site
              {
                OFFSET 15 -0 -0
              }
            }
          }
        }
      }
    }
  }
}
MOTION
Frames: 9
Frame Time: 0.0416666666667
0 103.5113 0 1.649042 -2.513896 0.3018019 2.347546 -13.58652 7.519676 -0 40.34839 -0 -6.817998 -16.38021 -4.067242 -7.511439 12.70308 -24.65548 -0 3.905164 -0 -0.2335249 -20.77204 24.07501 -3.510953 -3.239239 4.343564 0.5013133 8.212202 -7.112567 0.6579151 23.58214 8.503619 4.936492 -20.86291 8.338484 5.848625 -18.98183 10.97626 88.93697 37.26088 -22.91799 -0 0 15.20279 -6.720901 6.803333 3.158709 5.337578 -20.61774 -3.824732 -99.05542 42.35852 27.16994 0 0 -26.03421 -9.859846 16.64814 26.52253
0.1843594 104.2255 1.168208 1.474233 -2.349025 0.5287489 2.687913 -14.27491 7.661997 -0 40.67343 -0 -7.196056 -16.14038 -4.051144 -7.399439 12.74157 -24.65951 -0 3.750564 -0 -0.3955969 -21.03335 24.04644 -3.261152 -3.148668 4.398874 0.4005586 8.171057 -7.114829 0.7117704 23.54434 8.429898 5.005783 -21.08152 8.278508 5.699293 -19.15302 10.88435 89.14838 37.08426 -23.04625 -0 0 15.3208 -6.160298 6.23741 2.86644 5.375381 -20.7125 -3.843778 -99.61559 42.78608 27.86492 0 0 -26.37302 -9.977318 16.62813 27.01954
0.2595601 104.5833 3.600613 0.3847189 -0.2783504 0.7880055 3.66777 -23.89784 4.971005 -0 29.59679 -0 -6.167988 -9.618575 -3.991584 -5.573018 15.02938 -21.74307 -0 4.934238 -0 -2.369675 -23.13831 18.76679 -3.187923 -1.51767 2.596594 2.347368 7.291493 -8.051158 0.7654462 22.44665 8.202047 4.63331 -23.25936 8.310746 6.041997 -17.68367 11.02143 87.16708 35.64279 -22.2744 -0 0 14.16111 -9.645971 8.749397 5.688148 5.284558 -19.74456 -3.554402 -95.6586 38.38124 23.30994 0 0 -22.94376 -8.456283 15.52039 24.26676
0.3022032 104.821 6.470047 -0.1324919 0.4980346 1.1241 4.228102 -26.90025 4.470311 -0 26.53839 -0 -5.986242 -7.658841 -3.948494 -4.982439 15.70701 -20.77982 -0 6.013851 -0 -3.311145 -23.38266 17.05153 -2.883255 -1.063576 2.140877 2.829857 7.072455 -8.320058 0.8013547 22.01369 8.175441 4.554266 -24.02855 8.375818 6.100337 -17.27538 11.04624 86.8459 35.22704 -22.245 -0 0 13.68731 -10.41512 9.405003 6.38173 5.297535 -19.61763 -3.409716 -94.63889 37.07347 22.15117 0 0 -22.44981 -7.740552 15.09532 23.3963
0.310048 105.1001 9.785387 -0.8490454 1.300963 1.488499 5.211853 -29.57521 4.353733 -0 24.60256 -0 -6.265962 -6.004944 -3.791085 -4.37996 16.15408 -19.86997 -0 7.771742 -0 -4.686576 -23.19628 15.38442 -2.099041 -0.6920875 1.936041 2.867948 6.894389 -8.442187 0.9110605 21.67431 8.130907 4.580849 -24.63018 8.42564 5.972888 -17.00148 10.93165 87.16247 35.16014 -22.54397 -0 0 13.26159 -10.45966 9.781852 6.41497 5.392662 -19.76781 -3.362758 -94.21444 36.75917 21.82365 0 0 -23.07822 -7.174784 14.98794 23.37097
0.2961349 105.4318 13.50556 -1.433907 1.898453 1.852571 6.008585 -31.2821 4.273999 -0 22.98243 -0 -6.41456 -4.794051 -3.668019 -3.915969 16.36638 -19.01002 -0 9.995784 -0 -5.911633 -22.64402 13.94582 -1.410026 -0.4478617 1.814002 2.85225 6.8029 -8.52394 0.9895426 21.41315 8.114145 4.577381 -25.0016 8.480291 5.910349 -16.70057 10.86673 87.48326 35.2689 -22.82654 -0 0 12.81062 -10.6931 10.38833 6.494416 5.457291 -19.92612 -3.316498 -93.72999 36.40213 21.40288 0 0 -23.66654 -6.632704 14.95124 23.25877
0.2671264 105.8609 17.64904 -1.984973 2.384863 2.191647 6.766011 -32.33386 4.202139 -0 21.47961 -0 -6.517144 -3.808209 -3.561678 -3.503204 16.34265 -18.06484 -0 13.03689 -0 -7.185068 -21.7039 12.53173 -0.6814813 -0.2778723 1.776251 2.75215 6.778232 -8.568986 1.061518 21.20267 8.100205 4.554553 -25.20695 8.526511 5.878153 -16.35142 10.82499 87.89023 35.54967 -23.15162 -0 0 12.29541 -11.07668 11.2419 6.57378 5.511055 -20.13307 -3.271866 -93.20347 36.05274 20.94013 0 0 -24.33927 -6.084086 15.01317 23.16345
0.2309802 106.4204 22.21342 -2.456994 2.716528 2.474077 7.413355 -32.62897 4.100756 -0 20.07999 -0 -6.541992 -3.080853 -3.489948 -3.159119 16.02762 -17.06005 -0 16.91153 -0 -8.408944 -20.4097 11.21409 0.01460729 -0.1700894 1.813047 2.620141 6.823708 -8.581057 1.119985 21.05058 8.077009 4.497172 -25.26602 8.554331 5.892586 -15.96578 10.82788 88.28584 35.90987 -23.44741 -0 0 11.73677 -11.6477 12.29208 6.722918 5.526707 -20.33519 -3.214647 -92.64621 35.61928 20.42152 0 0 -24.89455 -5.539409 15.1187 23.00891
0.1935042 107.1541 27.19391 -2.834485 2.866877 2.664456 7.93343 -32.0615 3.939576 -0 18.7671 -0 -6.49785 -2.63078 -3.452853 -2.879974 15.31496 -15.97447 -0 21.83579 -0 -9.581369 -18.72994 10.00404 0.6715763 -0.1089304 1.940227 2.459763 6.943778 -8.547568 1.168165 20.97112 8.030369 4.40152 -25.17401 8.551062 5.953527 -15.54413 10.8818 88.63702 36.31681 -23.67546 -0 0 11.13766 -12.42203 13.51957 6.96049 5.493137 -20.51732 -3.138698 -92.08732 35.08118 19.87069 0 0 -25.25702 -4.999813 15.26129 22.78738
